<?xml version="1.0" encoding="utf-8"?>
<!-- Generator: Adobe Illustrator 17.1.0, SVG Export Plug-In . SVG Version: 6.00 Build 0)  -->
<!DOCTYPE svg PUBLIC "-//W3C//DTD SVG 1.1//EN" "http://www.w3.org/Graphics/SVG/1.1/DTD/svg11.dtd">
<svg version="1.1" xmlns="http://www.w3.org/2000/svg" xmlns:xlink="http://www.w3.org/1999/xlink" x="0px" y="0px"
	 viewBox="0 0 300 299.9" enable-background="new 0 0 300 299.9" xml:space="preserve">
<g id="Layer_1">
	<path fill="#37B2D2" d="M1330,1234.9c0,10.3,0,20.7,0,31c-1.8,2-1.4,4.7-1.8,7.1c-9.7,62.5-57.6,112.2-119.7,124.2
		c-4.5,0.9-9.2,0.8-13.5,2.7c-10.3,0-20.7,0-31,0c-2-1.8-4.7-1.4-7.1-1.8c-78.5-12.2-134.1-83.8-126.2-162.6
		c8.3-83,81.1-142.9,163.8-134.9c66.3,6.5,120.1,55.5,132.7,120.7C1328.1,1225.9,1328.1,1230.6,1330,1234.9z M1180.4,1175.9
		c-18.3,0-36.7,0.1-55-0.1c-3.8,0-5.5,1.3-7.1,4.6c-7.4,16.2-15,32.3-22.6,48.4c-1.2,2.6-2.5,5.1-3.3,7.8
		c-2.4,8.6,2.5,15.4,10.9,14.5c4.1-0.4,4.7,0.8,4.7,4.4c-0.1,19.2,0,38.3-0.1,57.5c0,3.5,0.7,5,4.6,4.9c21-0.2,42-0.2,63,0
		c3.9,0,4.7-1.3,4.6-4.9c-0.2-10.7,0-21.3-0.1-32c-0.1-3.3,1-4.3,4.3-4.3c12.2,0.2,24.3,0.2,36.5,0c3.6-0.1,4.5,1.2,4.4,4.6
		c-0.2,10.8,0,21.7-0.1,32.5c0,3,0.9,4.1,4,4c5.8-0.2,11.7-0.4,17.5,0.1c4.8,0.4,5.8-1.5,5.7-5.9c-0.2-19-0.1-38-0.1-57
		c0-2-0.7-4.2,3.1-4.1c10.2,0.4,15.6-8.3,11.3-17.6c-8.4-18-16.9-35.8-25.2-53.8c-1.3-2.9-3-3.8-6-3.8
		C1217,1175.9,1198.7,1175.9,1180.4,1175.9z"/>
	<path fill="#F4F5F7" d="M1180.4,1175.9c18.3,0,36.7,0.1,55-0.1c3.1,0,4.7,0.9,6,3.8c8.3,18,16.8,35.9,25.2,53.8
		c4.3,9.3-1.1,17.9-11.3,17.6c-3.8-0.1-3.1,2-3.1,4.1c0,19-0.1,38,0.1,57c0,4.4-0.9,6.3-5.7,5.9c-5.8-0.4-11.7-0.2-17.5-0.1
		c-3.1,0.1-4-1-4-4c0.1-10.8-0.1-21.7,0.1-32.5c0.1-3.4-0.8-4.7-4.4-4.6c-12.2,0.2-24.3,0.2-36.5,0c-3.3,0-4.3,1-4.3,4.3
		c0.2,10.7-0.1,21.3,0.1,32c0.1,3.6-0.7,4.9-4.6,4.9c-21-0.2-42-0.2-63,0c-4,0-4.6-1.4-4.6-4.9c0.1-19.2,0-38.3,0.1-57.5
		c0-3.6-0.5-4.8-4.7-4.4c-8.4,0.8-13.2-5.9-10.9-14.5c0.7-2.7,2.1-5.3,3.3-7.8c7.5-16.1,15.2-32.2,22.6-48.4
		c1.5-3.3,3.3-4.6,7.1-4.6C1143.7,1176,1162.1,1175.9,1180.4,1175.9z M1112.9,1239c0,8.9,2.7,12.2,9.4,12.1c6.7,0,9.6-3.4,9.5-11.6
		c-0.1-4.1,0.8-7.9,2-11.7c3.5-10.8,6.7-21.6,10.1-32.4c2.6-8.2,2.5-8-6.3-8.3c-4.5-0.2-6.8,1.1-8.4,5.5
		c-4.5,12.3-9.5,24.5-14.4,36.7C1113.5,1232.7,1112.5,1236,1112.9,1239z M1222.4,1187.2c-8.7,0-8.4-0.1-6.4,7.6
		c4.4,16.5,12.4,32,12.8,49.5c0.1,4.4,4.2,6.9,9.5,6.7c5.2-0.1,8.5-2.9,8.8-7.5c0.4-5.2,0-10.2-2.1-15.1
		c-4.9-11.5-9.5-23.1-13.7-34.8C1229.5,1188.6,1227.2,1185.9,1222.4,1187.2z M1166.6,1187.2c-7.8,0.3-7.1-1.8-8.7,7.8
		c-1.2,7.1-2.5,14.1-3.5,21.2c-1.3,8.9-3.8,17.6-3.2,26.7c0.4,5.5,4,8.4,9.9,8.2c5.6-0.2,8.7-3.1,8.9-8.5c0.1-3.8,0.2-7.7,0.5-11.5
		c1-13.3,2.1-26.6,3.3-39.8c0.3-3-0.6-4.4-3.8-4.1C1169,1187.4,1167.8,1187.3,1166.6,1187.2z M1208.9,1235.9
		c-1.7-10.8-3.9-24.8-6.3-38.7c-1.7-10-1.8-9.9-12-9.8c-3.5,0-4.4,1-4.1,4.7c1.2,16.4,3.4,32.8,3.5,49.3c0.1,6.9,3.9,10.3,10.8,9.7
		C1206.8,1250.5,1208.9,1247.4,1208.9,1235.9z M1136.4,1268c-12.3,0-12.3,0-12.3,12.5c0,12,0,12,12.3,12c12.2,0,12.2,0,12.2-12.3
		C1148.6,1268,1148.6,1268,1136.4,1268z"/>
	<path fill="#37B2D2" d="M1112.9,1239c-0.4-3,0.6-6.3,1.9-9.6c4.9-12.2,9.9-24.4,14.4-36.7c1.6-4.4,3.9-5.7,8.4-5.5
		c8.8,0.3,8.8,0.1,6.3,8.3c-3.4,10.8-6.6,21.6-10.1,32.4c-1.2,3.8-2.1,7.6-2,11.7c0.1,8.2-2.7,11.6-9.5,11.6
		C1115.6,1251.1,1112.9,1247.9,1112.9,1239z"/>
	<path fill="#37B2D2" d="M1222.4,1187.2c4.7-1.3,7.1,1.3,8.9,6.4c4.2,11.7,8.9,23.3,13.7,34.8c2.1,5,2.5,10,2.1,15.1
		c-0.3,4.7-3.7,7.4-8.8,7.5c-5.3,0.1-9.4-2.3-9.5-6.7c-0.4-17.6-8.4-33.1-12.8-49.5C1214,1187.2,1213.7,1187.2,1222.4,1187.2z"/>
	<path fill="#37B2D2" d="M1166.6,1187.2c1.2,0,2.3,0.1,3.5,0c3.2-0.3,4,1.1,3.8,4.1c-1.2,13.3-2.3,26.5-3.3,39.8
		c-0.3,3.8-0.4,7.6-0.5,11.5c-0.2,5.4-3.3,8.3-8.9,8.5c-5.9,0.2-9.5-2.8-9.9-8.2c-0.7-9.1,1.9-17.8,3.2-26.7
		c1-7.1,2.3-14.1,3.5-21.2C1159.6,1185.5,1158.9,1187.5,1166.6,1187.2z"/>
	<path fill="#37B2D2" d="M1208.9,1235.9c0,11.5-2.1,14.5-8.1,15.1c-6.9,0.7-10.7-2.7-10.8-9.7c-0.1-16.5-2.3-32.9-3.5-49.3
		c-0.3-3.7,0.6-4.6,4.1-4.7c10.3-0.1,10.4-0.2,12,9.8C1205,1211.2,1207.1,1225.1,1208.9,1235.9z"/>
	<path fill="#37B2D2" d="M1136.4,1268c12.2,0,12.2,0,12.2,12.3c0,12.3,0,12.3-12.2,12.3c-12.3,0-12.3,0-12.3-12
		C1124,1268,1124,1268,1136.4,1268z"/>
</g>
<g id="Layer_12">
	<path fill="#3587C1" d="M1723,1399.9c-11,0-22,0-33,0c-1.6-1.9-3.9-1.4-5.9-1.8c-64.7-10.1-115.2-60.6-125.3-125.3
		c-0.3-2,0.2-4.4-1.8-5.9c0-11.3,0-22.7,0-34c1.9-1.6,1.4-3.9,1.8-5.9c11.4-73.1,74.2-127,148-127.1c74.2-0.1,137.2,53.9,148.5,127
		c0.4,2.3-0.3,5,1.7,7c0,11,0,22,0,33c-1.9,1.6-1.4,3.9-1.8,5.9c-10.1,64.7-60.7,115.3-125.3,125.3
		C1727.6,1398.5,1725,1397.9,1723,1399.9z M1709,1183.9c-23.7,0-47.3,0-71,0c-6.7,0-7,0.3-7,7.1c0,32.8,0,65.7,0,98.5
		c0,7.5,0.1,7.7,7.5,7.7c8.5,0,8.5,0,6.3,8.1c-2.4,8.7,2.8,14.7,11.6,13.4c1.1-0.2,2.2-1.2,3,0.4c0.9,2,2.3,3.4,4.7,2.7
		c2.5-0.8,2.6-3.2,3-5.3c1.8-10.2,3.6-20.3,5.5-30.5c0.5-2.6,1.2-5.3-2-6.3c-3.6-1.2-4.5,1.9-5.4,4.4c-3.1,8.1-6,16.2-8.4,24.6
		c-0.5,1.7-1.2,3.9-3.7,3c-1.9-0.7-1.9-2.3-1.3-4.2c2.8-9.1,5.4-18.2,9.1-27c2.8-6.6,7.5-9.8,14.7-9.6c10.5,0.2,21-0.1,31.5,0.2
		c4,0.1,6.5-1.2,8.8-4.2c3.9-5,8.1-9.8,12.1-14.6c1.3-1.6,2.9-3.3,4.9-1.6c2,1.7,0.3,3.3-0.8,4.7c-2.8,3.5-6.1,6.7-8.6,10.4
		c-4.9,7.4-10.7,12.6-20.4,10.4c-0.2,0-0.3,0-0.5,0c-3.1,0.1-4.7,1.8-4.1,4.9c2.2,12.5,4.5,24.9,6.9,37.3c0.4,2.3,1.6,4.2,4.4,3.7
		c2.7-0.6,3.1-2.6,2.6-5.1c-0.9-4.7-1.3-9.6-2.6-14.2c-1.2-4.3-0.1-5.4,4.3-5.4c22,0.2,44,0.1,66,0.1c6.8,0,7-0.3,7-7.1
		c0-33,0-66,0-99c0-6.9-0.3-7.2-7-7.2C1756.4,1183.8,1732.7,1183.9,1709,1183.9z"/>
	<path fill="#F2F4F6" d="M1709,1183.9c23.7,0,47.3,0,71,0c6.7,0,7,0.3,7,7.2c0,33,0,66,0,99c0,6.8-0.3,7.1-7,7.1
		c-22,0-44,0.1-66-0.1c-4.4,0-5.5,1.1-4.3,5.4c1.3,4.6,1.7,9.5,2.6,14.2c0.5,2.4,0,4.5-2.6,5.1c-2.8,0.6-4-1.3-4.4-3.7
		c-2.4-12.4-4.7-24.9-6.9-37.3c-0.5-3.1,1-4.7,4.1-4.9c0.2,0,0.3,0,0.5,0c9.7,2.2,15.5-3,20.4-10.4c2.5-3.7,5.7-6.9,8.6-10.4
		c1.1-1.4,2.8-3,0.8-4.7c-2.1-1.7-3.6,0-4.9,1.6c-4,4.9-8.2,9.6-12.1,14.6c-2.3,3-4.9,4.4-8.8,4.2c-10.5-0.3-21,0.1-31.5-0.2
		c-7.3-0.1-12,3-14.7,9.6c-3.7,8.8-6.3,17.9-9.1,27c-0.6,1.9-0.6,3.5,1.3,4.2c2.5,0.9,3.2-1.2,3.7-3c2.4-8.3,5.3-16.5,8.4-24.6
		c0.9-2.5,1.8-5.6,5.4-4.4c3.2,1.1,2.5,3.8,2,6.3c-1.9,10.1-3.7,20.3-5.5,30.5c-0.4,2.1-0.5,4.5-3,5.3c-2.4,0.8-3.7-0.7-4.7-2.7
		c-0.8-1.6-1.9-0.6-3-0.4c-8.8,1.3-13.9-4.7-11.6-13.4c2.2-8.1,2.2-8.1-6.3-8.1c-7.3,0-7.5-0.1-7.5-7.7c0-32.8,0-65.7,0-98.5
		c0-6.8,0.3-7.1,7-7.1C1661.7,1183.8,1685.4,1183.9,1709,1183.9z M1709.2,1190.9c-22,0-44,0.1-66-0.1c-4.2,0-5.2,1.2-5.2,5.3
		c0.2,28.7,0.1,57.3,0.1,86c0,8.2,0,8.1,8,7.8c2.3-0.1,3.6-0.7,4.3-3c0.9-3,2.2-5.9,3.3-8.9c3.9-10,11.2-14.8,22-14.7
		c9.7,0.1,19.3-0.1,29,0.1c2.9,0,5-0.8,6.8-3.2c3.6-4.6,7.4-9,11.2-13.4c4.6-5.3,10.3-6.1,14.9-2.2c4.4,3.8,4.6,9.4,0.3,14.6
		c-4.5,5.5-9.4,10.9-13.7,16.5c-3.7,4.9-7.9,8-14.3,7.1c-3-0.4-3.5,0.8-3.1,3.7c0.4,3,1.9,3.3,4.4,3.3c21.5-0.1,43-0.1,64.5,0
		c3.6,0,4.4-1.2,4.4-4.6c-0.1-30-0.1-60,0-90c0-3.9-1.3-4.7-4.9-4.6C1753.1,1191,1731.2,1190.9,1709.2,1190.9z"/>
	<path fill="#3587C1" d="M1709.2,1190.9c22,0,44,0.1,66-0.1c3.6,0,4.9,0.7,4.9,4.6c-0.2,30-0.1,60,0,90c0,3.4-0.8,4.6-4.4,4.6
		c-21.5-0.2-43-0.1-64.5,0c-2.5,0-3.9-0.4-4.4-3.3c-0.4-2.9,0-4.1,3.1-3.7c6.4,0.9,10.6-2.3,14.3-7.1c4.3-5.7,9.2-11,13.7-16.5
		c4.3-5.3,4.1-10.8-0.3-14.6c-4.5-4-10.3-3.2-14.9,2.2c-3.8,4.4-7.6,8.8-11.2,13.4c-1.8,2.4-3.9,3.2-6.8,3.2
		c-9.7-0.1-19.3,0.1-29-0.1c-10.8-0.1-18.1,4.6-22,14.7c-1.1,2.9-2.5,5.8-3.3,8.9c-0.7,2.4-2,3-4.3,3c-8,0.2-8,0.3-8-7.8
		c0-28.7,0.1-57.3-0.1-86c0-4.1,1-5.4,5.2-5.3C1665.2,1191,1687.2,1190.9,1709.2,1190.9z M1685.2,1259.9c9.3,0,16.8-7.5,16.8-16.8
		c0-9.2-7.5-16.8-16.8-16.9c-9.3-0.1-17.2,7.9-17.1,17.1C1668.3,1252.6,1675.9,1259.9,1685.2,1259.9z M1742.4,1229.8
		c8.8,0,17.7,0,26.5,0c2.8,0,5.8-0.2,5.7-3.8c-0.1-3.4-3.1-3.3-5.7-3.3c-17.3,0-34.6,0-52,0c-2.6,0-5.5-0.1-5.7,3.3
		c-0.2,3.7,2.8,3.9,5.7,3.9C1725.4,1229.8,1733.9,1229.8,1742.4,1229.8z M1715.6,1211.9c7.1,0,14.3,0,21.4,0c2.5,0,4.9-0.5,4.9-3.6
		c0-3.2-2.4-3.6-4.9-3.6c-14.3,0-28.6,0-42.9,0c-2.7,0-5.3,0.2-5.2,3.8c0.1,3.1,2.6,3.4,5.1,3.4
		C1701.3,1211.9,1708.4,1211.9,1715.6,1211.9z"/>
	<path fill="#F2F4F6" d="M1685.2,1259.9c-9.3,0-16.9-7.3-17-16.5c-0.2-9.3,7.8-17.2,17.1-17.1c9.2,0.1,16.8,7.7,16.8,16.9
		C1701.9,1252.4,1694.5,1259.9,1685.2,1259.9z M1694.8,1242.9c-0.1-5.4-4.7-9.5-10.2-9.3c-5.2,0.2-9.3,4.6-9.2,9.7
		c0.1,5.1,4.5,9.4,9.6,9.4C1690.3,1252.8,1694.9,1248.1,1694.8,1242.9z"/>
	<path fill="#F2F4F6" d="M1742.4,1229.8c-8.5,0-17,0-25.5,0c-2.8,0-5.8-0.2-5.7-3.9c0.1-3.4,3.1-3.3,5.7-3.3c17.3,0,34.6,0,52,0
		c2.6,0,5.5,0,5.7,3.3c0.1,3.7-2.9,3.9-5.7,3.8C1760.1,1229.8,1751.2,1229.8,1742.4,1229.8z"/>
	<path fill="#F2F4F6" d="M1715.6,1211.9c-7.1,0-14.3,0-21.4,0c-2.5,0-5-0.2-5.1-3.4c-0.2-3.5,2.5-3.8,5.2-3.8c14.3,0,28.6,0,42.9,0
		c2.5,0,4.9,0.4,4.9,3.6c0,3.1-2.4,3.6-4.9,3.6C1729.9,1211.8,1722.7,1211.9,1715.6,1211.9z"/>
	<path fill="#3587C1" d="M1694.8,1242.9c0.1,5.2-4.5,9.9-9.7,9.9c-5.1,0-9.5-4.3-9.6-9.4c-0.2-5.2,3.9-9.5,9.2-9.7
		C1690.1,1233.4,1694.6,1237.5,1694.8,1242.9z"/>
</g>
<g id="Layer_11">
	<path fill="#3587C1" d="M516,1266.9c0-11.3,0-22.7,0-34c1.6-0.8,1-2.3,1.2-3.5c12.6-82.2,84-137.3,166.3-128.5
		c70.6,7.6,126.9,66.2,132.3,137.5c5.7,75.7-45.5,143.4-119.9,158.7c-4.6,1-9.5,0.7-13.9,2.9c-11,0-22,0-33,0
		c-0.8-1.6-2.3-1-3.5-1.2c-65-10-113.8-56.3-126.9-120.4C517.7,1274.5,518.2,1270.3,516,1266.9z M730,1232.9c0-17.3-0.2-34.6,0.1-52
		c0.1-5.3-1.6-6.2-6.4-6.1c-27.6,0.3-54.2,5.5-80,15c-3.8,1.4-4.9,3.3-4.9,7.2c0.2,28,0,56,0.2,83.9c0,4-1,4.8-4.7,3.7
		c-5.8-1.7-11.6-0.6-17.1,1.6c-11.1,4.3-17.9,14.5-15.9,23.7c2,9.5,11.9,15.6,24.2,15c15.5-0.8,25.6-11.3,25.6-26.6
		c0-21.3,0-42.6,0-64c0-2.4,0-4.3,3.1-5.2c19.2-5.6,38.7-9.6,58.7-11.2c2.8-0.2,4.8-0.2,4.7,3.6c-0.2,14.7-0.1,29.3,0,44
		c0,2.9-0.7,3.7-3.8,3.1c-9.5-2-18.2,0.2-25.7,6.4c-4.4,3.6-7.4,8.2-7.9,14c-0.7,9,5.3,16.5,15.1,18.9c19,4.8,34.9-7.5,34.9-27
		C730,1264.8,730,1248.8,730,1232.9z"/>
	<path fill="#F4F5F7" d="M730,1232.9c0,16,0,32,0,48c0,19.5-15.9,31.7-34.9,27c-9.8-2.5-15.8-9.9-15.1-18.9c0.5-5.8,3.5-10.4,7.9-14
		c7.5-6.1,16.2-8.4,25.7-6.4c3.1,0.6,3.8-0.2,3.8-3.1c-0.1-14.7-0.1-29.3,0-44c0-3.8-1.9-3.9-4.7-3.6c-20,1.7-39.5,5.6-58.7,11.2
		c-3.1,0.9-3.1,2.8-3.1,5.2c0,21.3,0,42.6,0,64c0,15.4-10,25.8-25.6,26.6c-12.3,0.6-22.1-5.5-24.2-15c-2-9.2,4.8-19.4,15.9-23.7
		c5.5-2.1,11.3-3.2,17.1-1.6c3.7,1.1,4.7,0.3,4.7-3.7c-0.2-28,0-56-0.2-83.9c0-3.9,1.1-5.8,4.9-7.2c25.9-9.5,52.5-14.7,80-15
		c4.8,0,6.5,0.8,6.4,6.1C729.8,1198.2,730,1215.5,730,1232.9z"/>
</g>
<g id="Layer_10">
	<path fill="#FFE529" d="M166,1399.9c-11,0-22,0-33,0c-0.8-1.6-2.3-1-3.5-1.2c-66.2-10.9-114-56.4-127-120.9
		c-0.7-3.6-0.4-7.5-2.5-10.9c0-11.3,0-22.7,0-34c2-1.9,1.4-4.6,1.8-7c13.3-83,93.4-139.5,175.5-123.7c77.9,15,130,85.2,121.8,164
		c-6.5,62.5-52.8,115.1-113.9,129.5C178.8,1397.3,172.4,1398.5,166,1399.9z M181.4,1309.8c0.7-1.1,0.8-1.5,1-1.7
		c29.8-29.8,24.3-77.3-9.4-100.3c-2.4-1.7-2.4-2.9-1-5.2c6-10,11.9-20,17.7-30.1c0.7-1.3,2.7-2.8,0.6-4.3c-2.2-1.5-0.9-2.8-0.2-4.2
		c3.3-6.3,3.3-6.3-3.1-9.9c-1.3-0.7-2.7-1.3-3.9-2.2c-2.8-2.2-4.1-1-5.7,1.6c-1,1.8-1.5,5.7-4.1,4.7c-3.7-1.3-4,1.2-5.1,3
		c-16.2,27.5-32.3,55.1-48.5,82.7c-1.4,2.3-2.8,4.3,0.9,5.8c1.6,0.7,0.9,1.8,0.3,2.9c-1.3,2.1-2.4,4.4-3.8,6.4
		c-1.3,1.9-1.1,2.9,1,4.2c8.6,5.4,8.5,5.5,13.8-2.8c0.8-1.2,1.3-3.7,3.5-2.3c3.5,2.2,4.3-0.5,5.5-2.6c5.9-10,12-20,17.6-30.2
		c2-3.7,3.5-3.3,6.2-1.1c15.5,12.9,21.9,29.3,17,49c-5,20-18.5,31.9-38.7,35.7c-11.4,2.2-22.9,0.7-34.4,0.9
		c-13.2,0.2-13,0-13.2,13.3c0,4.1,1.3,4.9,5.1,4.9c30.5-0.1,61,0,91.5-0.1c4.4,0,10.3,2,13-0.9c2.8-3,0.5-8.9,0.9-13.5
		c0.3-3.4-1.3-3.8-4.1-3.7C195.3,1309.9,188.7,1309.8,181.4,1309.8z M94.9,1262.5c-2.2,1.5-3.1,3.9-4.1,6.1c-1,1.9,1.1,2.1,2.1,2.6
		c12.8,7.4,25.8,14.5,38.5,22.1c3.4,2,4.4,0.6,5.9-2c1.6-2.6,1.7-4-1.4-5.7c-12.8-7-25.5-14.4-38.2-21.6
		C96.9,1263.5,96,1263.1,94.9,1262.5z"/>
	<path fill="#F6F6F5" d="M181.4,1309.8c7.3,0,13.9,0.1,20.5,0c2.8-0.1,4.4,0.4,4.1,3.7c-0.5,4.6,1.9,10.5-0.9,13.5
		c-2.6,2.8-8.5,0.8-13,0.9c-30.5,0.1-61,0-91.5,0.1c-3.8,0-5.1-0.8-5.1-4.9c0.1-13.3,0-13.1,13.2-13.3c11.5-0.2,23,1.3,34.4-0.9
		c20.2-3.9,33.7-15.7,38.7-35.7c4.9-19.6-1.5-36-17-49c-2.7-2.3-4.2-2.6-6.2,1.1c-5.6,10.2-11.7,20.2-17.6,30.2
		c-1.2,2.1-2.1,4.8-5.5,2.6c-2.2-1.4-2.7,1.1-3.5,2.3c-5.3,8.2-5.2,8.2-13.8,2.8c-2.1-1.3-2.3-2.3-1-4.2c1.4-2.1,2.6-4.3,3.8-6.4
		c0.6-1,1.4-2.2-0.3-2.9c-3.7-1.5-2.3-3.5-0.9-5.8c16.2-27.5,32.3-55.1,48.5-82.7c1.1-1.8,1.4-4.3,5.1-3c2.6,0.9,3-2.9,4.1-4.7
		c1.5-2.7,2.9-3.8,5.7-1.6c1.2,0.9,2.6,1.5,3.9,2.2c6.4,3.6,6.4,3.6,3.1,9.9c-0.8,1.4-2,2.7,0.2,4.2c2.1,1.5,0.1,3-0.6,4.3
		c-5.8,10.1-11.7,20.1-17.7,30.1c-1.4,2.3-1.4,3.5,1,5.2c33.7,23,39.3,70.6,9.4,100.3C182.2,1308.3,182.1,1308.6,181.4,1309.8z"/>
	<path fill="#F6F6F5" d="M94.9,1262.5c1.1,0.5,2,0.9,2.8,1.4c12.7,7.2,25.4,14.6,38.2,21.6c3.1,1.7,2.9,3,1.4,5.7
		c-1.6,2.6-2.5,4.1-5.9,2c-12.7-7.5-25.7-14.7-38.5-22.1c-1-0.5-3-0.7-2.1-2.6C91.8,1266.5,92.7,1264.1,94.9,1262.5z"/>
</g>
<g id="Layer_9">
	<path fill="#3587C1" d="M1557,709.9c0-6.3,0-12.7,0-19c1.3-0.7,0.9-2,1-3.1c7.3-79,71.3-137.4,150.6-137.4
		c69.6,0,130.4,48.9,145.6,117.1c0.8,3.8,0.8,7.8,2.8,11.4c0,14.7,0,29.3,0,44c-1.8,1.4-1.4,3.6-1.8,5.4
		c-11.4,59.3-56.6,105.9-115.4,118.8c-4,0.9-8.2,0.7-11.8,2.8c-14,0-28,0-42,0c-1.2-1.8-3.3-1.4-4.9-1.7
		c-60.3-11-107.4-56.7-120.3-116.5C1559.2,724.4,1559.4,716.9,1557,709.9z M1707.8,779.4c1.1-0.3,2.4-0.6,3.6-1.1
		c14.1-6,27.7-13.1,39.4-23.2c16.8-14.5,25.6-32.4,23.2-55.1c-0.9-8.4-3.8-16.1-6.1-24.1c-3.2-10.8-2.2-20.8,6.8-28.8
		c2-1.8,0.8-2.8-0.3-4c-5.5-6.2-11.2-12.3-16.4-18.8c-2.5-3.1-4.1-3.4-7.5-1.1c-13.9,9.4-26.3,9.3-39.7-0.4
		c-2.7-1.9-4.1-1.3-6.4,0.4c-11.9,8.7-24.2,9.1-36.9,1.6c-1.6-0.9-3.2-1.9-4.6-3c-1.3-1-2.3-0.9-3.4,0.3
		c-6.3,7.3-12.7,14.5-19.2,21.7c-1.4,1.6-0.9,2.2,0.6,3.4c7.8,6.4,9.4,15.1,7.7,24.4c-0.9,4.9-2.7,9.6-4.2,14.4
		c-7.2,23.6-3.3,44.7,13.9,62.9c13.1,13.8,29.6,22.4,46.9,29.7C1705.9,779.1,1706.8,779.2,1707.8,779.4z"/>
	<path fill="#FDFDFE" d="M1707.8,779.4c-1-0.2-1.9-0.3-2.6-0.6c-17.3-7.3-33.7-15.9-46.9-29.7c-17.2-18.2-21.1-39.3-13.9-62.9
		c1.5-4.8,3.3-9.5,4.2-14.4c1.7-9.3,0.1-18-7.7-24.4c-1.5-1.2-2-1.8-0.6-3.4c6.4-7.2,12.8-14.5,19.2-21.7c1.1-1.3,2.1-1.3,3.4-0.3
		c1.5,1.1,3,2,4.6,3c12.6,7.4,25,7.1,36.9-1.6c2.2-1.6,3.7-2.3,6.4-0.4c13.4,9.7,25.9,9.8,39.7,0.4c3.4-2.3,5-1.9,7.5,1.1
		c5.2,6.5,10.9,12.6,16.4,18.8c1.1,1.3,2.4,2.2,0.3,4c-9,7.9-10,17.9-6.8,28.8c2.3,8,5.2,15.8,6.1,24.1c2.4,22.7-6.4,40.6-23.2,55.1
		c-11.7,10.1-25.3,17.2-39.4,23.2C1710.2,778.9,1708.9,779.1,1707.8,779.4z M1766.4,648c-1.3,1-2.7,2-3.9,3
		c-12.5,10-25,20-37.5,29.9c-22.5,18-45,36-67.6,53.9c-2.5,2-3,3.4-0.8,5.9c3.4,4.1,7.1,7.9,11,11.5c2.1,2,3.6,2,5.9,0.2
		c7.7-6.4,15.6-12.5,23.4-18.8c21.5-17.2,43-34.3,64.4-51.5c1.5-1.2,3.6-2,2.8-4.7C1760.9,667.5,1761.6,657.8,1766.4,648z"/>
	<path fill="#3788C1" d="M1766.4,648c-4.8,9.8-5.5,19.5-2.4,29.5c0.8,2.7-1.3,3.5-2.8,4.7c-21.5,17.2-43,34.3-64.4,51.5
		c-7.8,6.2-15.7,12.4-23.4,18.8c-2.3,1.9-3.7,1.8-5.9-0.2c-3.9-3.6-7.6-7.5-11-11.5c-2.1-2.5-1.7-3.9,0.8-5.9
		c22.6-17.9,45.1-35.9,67.6-53.9c12.5-10,25-20,37.5-29.9C1763.7,650,1765.1,649,1766.4,648z"/>
</g>
<g id="Layer_8">
	<path fill="#8B88C1" d="M1330,683.9c0,11,0,22,0,33c-1.8,1.4-1.4,3.6-1.7,5.5c-10.7,65.9-60,115.2-125.8,125.8
		c-2.2,0.4-4.7-0.2-6.5,1.7c-11,0-22,0-33,0c-1.8-1.9-4.3-1.5-6.5-1.8c-77.8-11.9-133.6-83.9-125.7-162.5
		c8.3-83,81.1-142.9,163.8-134.9c68.2,6.6,123.1,58.4,133.7,126.2C1328.6,679.2,1328.1,681.9,1330,683.9z M1214.5,770.9
		c3.1,5.8,6.6,7.3,14.2,6.3c2.9-0.4,5.8-0.8,6.2-4.5c0.3-3.3-1.8-4.8-4.6-5.6c-2.7-0.8-4.2-2.3-4.4-5.3c-0.9-11.9-0.5-23.6,1.7-35.3
		c3-15.6,8.4-30.9,5.6-47.3c-0.6-3.2-1.5-5-4.6-6.2c-6.4-2.4-12.2-6.1-17.4-10.6c-5.8-5-5.9-5.2-12.3-0.8
		c-7.5,5.1-15.7,8.6-24.6,8.8c-18.5,0.3-37-0.5-55.5-0.3c-5.4,0-8-1.9-9.1-6.9c-1.2-5.7-2.6-11.3-4.2-17c-0.7-2.6-2.4-4.5-5.5-4
		c-3.2,0.5-3.2,3.1-3.1,5.4c0.5,10.2,1.9,20.2,7,29.3c0.8,1.4,1.3,2.6,0.3,4.1c-8.3,12.6-5.9,25.9-1.7,38.9
		c2.4,7.2,2.2,13.4-1.1,20.1c-5.9,12.2-4,24.3,1.2,36.2c1,2.3,2.7,4.3,5,5.5c3.2,1.7,6.5,1.9,9.5-0.1c3.3-2.2,1.4-5.2,0.4-7.6
		c-4-9.7-3.6-19.5-1.8-29.5c0.3-1.6,0.5-3.2,2.9-4.7c0,2.7,0.1,4.7,0,6.6c-0.5,7,1.4,13.5,3.5,20c1.9,5.8,5.4,9.6,11.4,11.5
		c5.9,1.9,8.5-0.1,7.6-6.4c-0.7-4.6-3.2-8.4-5.3-12.3c-2.7-5.1-2.8-10-0.7-15.3c3.8-9.4,8.1-18.7,8.1-29.1c0-1.8,0.4-4,2.5-4.5
		c4.2-1,8.3-2.4,12.6-0.2c9.7,5,20,8.1,30.5,10.9c8.3,2.2,9.7,4.4,8.6,13.1c-1.3,10.2-2.5,20.5-3.5,30.7c-0.6,6.5,1.3,9.7,6,11.1
		C1207.1,777.8,1211.1,776.5,1214.5,770.9z M1246.2,621.6c-0.4-4-1-7.7-4.8-8.5c-3.9-0.8-6.1,2.1-7.4,5.4c-2.4,6-6.2,11-10.1,16
		c-3.5,4.4-6.8,9-10.6,13.2c-2.6,2.9-2,4.6,0.6,6.9c6,5.4,12.8,9.5,19.9,13.1c2.3,1.2,4.1,0.9,5.7-0.9c3.3-3.6,6.5-3.5,10.9-1.3
		c11.2,5.6,21.1,1,24.1-10.6c1.3-4.9-0.2-7.4-5.2-7.9c-5.3-0.6-9.5-2.6-12.7-6.9c-1.4-1.8-3.1-3.5-4.9-5
		C1247.5,631.3,1242.5,628,1246.2,621.6z"/>
	<path fill="#F4F4F6" d="M1214.5,770.9c-3.4,5.6-7.4,6.9-14.4,4.8c-4.8-1.4-6.7-4.6-6-11.1c1-10.3,2.3-20.5,3.5-30.7
		c1.1-8.7-0.3-10.9-8.6-13.1c-10.5-2.8-20.8-6-30.5-10.9c-4.3-2.2-8.5-0.8-12.6,0.2c-2.1,0.5-2.4,2.8-2.5,4.5
		c0,10.5-4.4,19.7-8.1,29.1c-2.1,5.3-2,10.2,0.7,15.3c2.1,4,4.6,7.7,5.3,12.3c0.9,6.3-1.7,8.3-7.6,6.4c-6-1.9-9.5-5.7-11.4-11.5
		c-2.1-6.5-4-13-3.5-20c0.1-1.9,0-3.8,0-6.6c-2.4,1.6-2.6,3.2-2.9,4.7c-1.8,10-2.2,19.8,1.8,29.5c1,2.4,2.9,5.5-0.4,7.6
		c-3,2-6.4,1.8-9.5,0.1c-2.3-1.2-3.9-3.1-5-5.5c-5.3-11.9-7.1-24-1.2-36.2c3.3-6.7,3.5-13,1.1-20.1c-4.3-13-6.7-26.3,1.7-38.9
		c1-1.5,0.5-2.7-0.3-4.1c-5.1-9.1-6.5-19.1-7-29.3c-0.1-2.3-0.1-4.9,3.1-5.4c3.1-0.5,4.8,1.4,5.5,4c1.5,5.6,2.9,11.3,4.2,17
		c1.1,5,3.7,6.9,9.1,6.9c18.5-0.1,37,0.6,55.5,0.3c8.9-0.1,17.1-3.6,24.6-8.8c6.3-4.4,6.5-4.1,12.3,0.8c5.2,4.5,11,8.2,17.4,10.6
		c3,1.1,4,2.9,4.6,6.2c2.8,16.4-2.6,31.7-5.6,47.3c-2.2,11.7-2.7,23.5-1.7,35.3c0.2,3,1.7,4.5,4.4,5.3c2.8,0.8,4.9,2.3,4.6,5.6
		c-0.4,3.7-3.3,4.1-6.2,4.5C1221.1,778.2,1217.7,776.7,1214.5,770.9z M1214.1,768c0.1-11.4,0.2-22.5-1.4-33.6
		c-1.9,7.2-3.5,14.5-5,21.7C1206.3,762.7,1207.3,764.6,1214.1,768z"/>
	<path fill="#F4F4F6" d="M1246.2,621.6c-3.7,6.3,1.4,9.7,5.7,13.4c1.8,1.5,3.5,3.2,4.9,5c3.2,4.3,7.5,6.3,12.7,6.9
		c5,0.5,6.4,3,5.2,7.9c-3,11.5-12.9,16.2-24.1,10.6c-4.4-2.2-7.7-2.3-10.9,1.3c-1.7,1.8-3.4,2.1-5.7,0.9
		c-7.2-3.6-13.9-7.8-19.9-13.1c-2.6-2.3-3.2-4-0.6-6.9c3.8-4.2,7.1-8.8,10.6-13.2c3.9-5,7.7-10,10.1-16c1.3-3.3,3.5-6.2,7.4-5.4
		C1245.2,613.9,1245.7,617.6,1246.2,621.6z"/>
	<path fill="#8B88C1" d="M1214.1,768c-6.8-3.5-7.8-5.4-6.4-11.9c1.5-7.3,3.1-14.5,5-21.7C1214.3,745.5,1214.1,756.6,1214.1,768z"/>
</g>
<g id="Layer_7">
	<path fill="#F15E5E" d="M681,849.9c-10.3,0-20.7,0-31,0c-1.6-1.9-4-1.3-6-1.6c-66.5-10.8-115.6-59.9-126.4-126.4
		c-0.3-2,0.3-4.4-1.6-6c0-10.7,0-21.3,0-32c1.9-1.6,1.3-4,1.6-6c13.5-83.8,88.8-138.8,172.6-126c71.5,10.9,125.7,74.4,125.8,147.6
		c0.1,73.6-53.8,137.3-125.5,148.4C687.3,848.4,683.9,848,681,849.9z M743,700.1c0-8-0.3-16,0.1-24c0.2-4.7-0.8-6.3-5.9-6.2
		c-12.1,0.4-24.3,0-36.5,0.2c-3.8,0.1-5.2-0.9-5.1-4.9c0.3-12.8,0-25.7,0.2-38.5c0-3-0.9-4-3.9-4c-17.2,0.1-34.3,0.2-51.5,0
		c-3.3,0-4.2,1-4.2,4.2c0.2,12.8-0.1,25.7,0.2,38.5c0.1,3.8-1.2,4.8-4.8,4.7c-12.7-0.2-25.3,0-38-0.1c-3.3,0-4.7,0.6-4.6,4.3
		c0.2,17,0.2,34,0,51c0,3.7,1.3,4.4,4.6,4.3c12.7-0.2,25.3,0.1,38-0.1c3.6-0.1,4.9,0.8,4.8,4.7c-0.2,12.8,0,25.7-0.2,38.5
		c0,3.2,0.8,4.3,4.2,4.2c17-0.2,34-0.2,51,0c3.5,0,4.5-1,4.5-4.5c-0.2-12.7,0.1-25.3-0.2-38c-0.1-4,1.2-5,5.1-4.9
		c12.3,0.2,24.7-0.1,37,0.2c4,0.1,5.6-0.7,5.4-5.1C742.7,716.4,743,708.3,743,700.1z"/>
	<path fill="#F6F4F5" d="M743,700.1c0,8.2-0.3,16.3,0.1,24.5c0.2,4.4-1.4,5.2-5.4,5.1c-12.3-0.2-24.7,0.1-37-0.2
		c-3.8-0.1-5.2,0.9-5.1,4.9c0.3,12.7,0,25.3,0.2,38c0.1,3.5-1,4.5-4.5,4.5c-17-0.2-34-0.2-51,0c-3.3,0-4.2-1-4.2-4.2
		c0.2-12.8-0.1-25.7,0.2-38.5c0.1-3.8-1.2-4.7-4.8-4.7c-12.7,0.2-25.3,0-38,0.1c-3.3,0-4.7-0.6-4.6-4.3c0.2-17,0.2-34,0-51
		c0-3.7,1.3-4.4,4.6-4.3c12.7,0.2,25.3-0.1,38,0.1c3.7,0.1,4.9-0.9,4.8-4.7c-0.2-12.8,0-25.7-0.2-38.5c0-3.2,0.9-4.3,4.2-4.2
		c17.2,0.2,34.3,0.1,51.5,0c3.1,0,4,1,3.9,4c-0.1,12.8,0.1,25.7-0.2,38.5c-0.1,4.1,1.3,5,5.1,4.9c12.2-0.2,24.3,0.2,36.5-0.2
		c5-0.2,6.1,1.5,5.9,6.2C742.7,684.1,743,692.1,743,700.1z"/>
</g>
<g id="Layer_6">
	<path fill="#8B88C1" d="M166,849.9c-11,0-22,0-33,0c-1.6-1.8-4-1.5-6-1.8C62.3,837.9,12,787.6,1.8,722.9c-0.3-2,0-4.4-1.8-6
		c0-11.3,0-22.7,0-34c1.9-1.8,1.5-4.3,1.8-6.5c11.9-77.8,83.9-133.6,162.5-125.7c83,8.3,142.9,81.1,134.9,163.8
		c-6.6,68.2-58.5,123.1-126.2,133.7C170.7,848.5,168,848,166,849.9z M149.5,768.9c21.5,0,43,0,64.5,0c15.8,0,28-12.1,28-27.8
		c0.1-35.8,0-71.6,0.1-107.4c0-3.6-0.8-4.9-4.7-4.9c-43.5,0.1-86.9,0.1-130.4,0c-4.2,0-5,1.6-4.9,5.2c0.2,10.5-0.2,21,0.2,31.5
		c0.1,4.6-1.4,5.6-5.7,5.5c-11.7-0.3-23.3,0.1-35-0.2c-3.8-0.1-4.7,1.2-4.7,4.9c0.2,21.7,0,43.3,0.1,65c0,16.3,12.1,28.3,28.5,28.3
		C106.9,768.9,128.2,768.9,149.5,768.9z"/>
	<path fill="#F1F1F5" d="M149.5,768.9c-21.3,0-42.6,0-64,0c-16.4,0-28.5-12-28.5-28.3c-0.1-21.7,0.1-43.3-0.1-65
		c0-3.6,0.9-4.9,4.7-4.9c11.7,0.2,23.3-0.1,35,0.2c4.3,0.1,5.8-0.9,5.7-5.5c-0.3-10.5,0-21-0.2-31.5c-0.1-3.7,0.7-5.2,4.9-5.2
		c43.5,0.2,86.9,0.1,130.4,0c3.9,0,4.7,1.3,4.7,4.9c-0.1,35.8,0,71.6-0.1,107.4c0,15.7-12.3,27.7-28,27.8
		C192.5,768.9,171,768.9,149.5,768.9z M172.5,639.6c-17.8,0-35.6,0.2-53.5-0.1c-4.7-0.1-6.2,1.1-6.2,6.1c0.2,31.3,0.1,62.6,0.1,93.9
		c0,5.1-0.7,10.1-3.3,14.4c-2.3,3.9-0.9,4.3,2.7,4.3c33.6-0.1,67.3,0,100.9-0.1c11.2,0,17.9-7,17.9-18.3c0.1-31.6,0-63.3,0.1-94.9
		c0-4.1-1.3-5.4-5.4-5.4C208.2,639.7,190.3,639.6,172.5,639.6z M67.7,713.8C67.7,713.8,67.7,713.8,67.7,713.8c0,9,0,18,0,27
		c0,0.3,0,0.7,0,1c0.5,9.3,7.6,16.2,16.9,16.3c9.5,0.1,17-6.7,17.5-16.2c0.2-4.8,0-9.7,0.1-14.5c0.1-2.8-1-3.9-3.8-3.8
		c-5.3,0.1-10.7-0.3-16,0.1c-4.7,0.3-4.4-2.4-4.5-5.6c-0.1-3.5,0.3-5.7,4.7-5.3c5.1,0.4,10.3-0.1,15.5,0.2c4,0.2,4.2-2,4.1-4.9
		c0-3,0.1-5.6-4.3-5.4c-5.5,0.3-11-0.1-16.5,0.1c-4.5,0.1-3.5-3-3.5-5.5c0-2.5-1-5.6,3.5-5.4c5.5,0.2,11-0.2,16.5,0.1
		c3.9,0.2,4.4-1.7,4.2-4.9c-0.1-2.9,0.3-5.6-4.2-5.5c-8.7,0.2-17.3,0.2-26,0c-3.7-0.1-4.5,1.6-4.4,4.8
		C67.8,695.5,67.7,704.6,67.7,713.8z"/>
	<path fill="#8B88C1" d="M172.5,639.6c17.8,0,35.6,0.1,53.5-0.1c4.1,0,5.4,1.2,5.4,5.4c-0.1,31.6,0,63.3-0.1,94.9
		c0,11.3-6.7,18.2-17.9,18.3c-33.6,0.1-67.3,0-100.9,0.1c-3.6,0-5-0.5-2.7-4.3c2.6-4.4,3.3-9.3,3.3-14.4
		c-0.1-31.3,0.1-62.6-0.1-93.9c0-4.9,1.5-6.1,6.2-6.1C136.9,639.7,154.7,639.6,172.5,639.6z M149.5,702.6c7.3,0,14.6-0.1,21.9,0
		c3.1,0.1,4.5-0.7,4.5-4.2c-0.1-15-0.1-29.9,0-44.9c0-2.7-0.8-3.9-3.7-3.8c-15.1,0.1-30.3,0.1-45.4,0c-2.9,0-3.7,1.1-3.7,3.8
		c0.1,15,0.1,29.9,0,44.9c0,3.4,1.4,4.2,4.5,4.2C134.9,702.5,142.2,702.6,149.5,702.6z M172.5,723.6c14.7,0,29.3-0.2,44,0.1
		c4.6,0.1,4.6-2.2,4.6-5.5c0-3.4-0.1-5.5-4.6-5.4c-29.5,0.2-59,0.2-88.5,0c-4.2,0-5,1.5-4.9,5.2c0,3.6,0.3,5.9,5,5.8
		C142.8,723.4,157.7,723.6,172.5,723.6z M203.6,660.6c4.6,0,9.3-0.1,13.9,0c4.9,0.1,3.3-3.5,3.5-6c0.2-2.5,0.4-4.9-3.6-4.9
		c-9.3,0.2-18.6,0.2-27.9,0c-4.5-0.1-3.4,3-3.5,5.4c-0.1,2.5-0.8,5.6,3.6,5.4C194.3,660.4,198.9,660.6,203.6,660.6z M203.7,681.6
		c4.5,0,9-0.2,13.5,0.1c4.7,0.3,3.9-2.9,3.9-5.6c0-2.6,0.7-5.4-3.7-5.2c-9.1,0.2-18.3,0.3-27.4,0c-4.2-0.1-4,2.3-3.9,5.1
		c0.2,2.6-1.1,6,3.7,5.8C194.4,681.5,199.1,681.6,203.7,681.6z M203.6,691.8c-4.7,0-9.3,0.2-14-0.1c-4-0.2-3.8,2.3-3.6,4.9
		c0.2,2.5-1.5,6.1,3.4,6c9.3-0.1,18.6-0.1,27.9,0c4.4,0.1,3.6-2.9,3.6-5.4c-0.1-2.4,1.2-5.7-3.4-5.5
		C212.9,692,208.3,691.8,203.6,691.8z"/>
	<path fill="#8B88C1" d="M67.7,713.8c0-9.2,0.1-18.3,0-27.5c0-3.2,0.7-4.9,4.4-4.8c8.7,0.2,17.3,0.2,26,0c4.5-0.1,4.1,2.6,4.2,5.5
		c0.1,3.1-0.4,5.1-4.2,4.9c-5.5-0.3-11,0.1-16.5-0.1c-4.5-0.2-3.5,3-3.5,5.4c0,2.5-1,5.6,3.5,5.5c5.5-0.2,11,0.2,16.5-0.1
		c4.4-0.2,4.2,2.4,4.3,5.4c0,3-0.1,5.2-4.1,4.9c-5.1-0.3-10.3,0.2-15.5-0.2c-4.4-0.3-4.8,1.9-4.7,5.3c0.1,3.2-0.2,5.9,4.5,5.6
		c5.3-0.4,10.7,0,16-0.1c2.8-0.1,3.9,1,3.8,3.8c-0.1,4.8,0.1,9.7-0.1,14.5c-0.4,9.5-7.9,16.3-17.5,16.2c-9.2-0.1-16.3-7-16.9-16.3
		c0-0.3,0-0.7,0-1C67.7,731.8,67.7,722.8,67.7,713.8C67.7,713.8,67.7,713.8,67.7,713.8z"/>
	<path fill="#F1F1F5" d="M149.5,702.6c-7.3,0-14.6-0.1-22,0c-3.1,0.1-4.5-0.7-4.5-4.2c0.1-15,0.1-29.9,0-44.9c0-2.7,0.8-3.9,3.7-3.8
		c15.1,0.1,30.3,0.1,45.4,0c2.9,0,3.7,1.1,3.7,3.8c-0.1,15-0.1,29.9,0,44.9c0,3.4-1.4,4.2-4.5,4.2
		C164.1,702.5,156.8,702.6,149.5,702.6z"/>
	<path fill="#F1F1F5" d="M172.5,723.6c-14.8,0-29.7-0.2-44.5,0.1c-4.7,0.1-4.9-2.1-5-5.8c0-3.7,0.8-5.2,4.9-5.2
		c29.5,0.2,59,0.2,88.5,0c4.5,0,4.7,2.1,4.6,5.4c0,3.3-0.1,5.6-4.6,5.5C201.8,723.5,187.2,723.6,172.5,723.6z"/>
	<path fill="#F1F1F5" d="M203.6,660.6c-4.6,0-9.3-0.1-13.9,0c-4.4,0.2-3.6-2.9-3.6-5.4c0-2.4-1-5.5,3.5-5.4c9.3,0.2,18.6,0.2,27.9,0
		c4-0.1,3.8,2.3,3.6,4.9c-0.2,2.5,1.4,6.1-3.5,6C212.9,660.5,208.2,660.6,203.6,660.6z"/>
	<path fill="#F1F1F5" d="M203.7,681.6c-4.7,0-9.3-0.2-14,0c-4.8,0.2-3.6-3.2-3.7-5.8c-0.2-2.8-0.4-5.2,3.9-5.1
		c9.1,0.3,18.3,0.2,27.4,0c4.4-0.1,3.7,2.7,3.7,5.2c0,2.7,0.8,5.9-3.9,5.6C212.7,681.4,208.2,681.6,203.7,681.6z"/>
	<path fill="#F1F1F5" d="M203.6,691.8c4.7,0,9.3,0.2,14,0c4.6-0.2,3.4,3.1,3.4,5.5c0.1,2.5,0.9,5.5-3.6,5.4
		c-9.3-0.2-18.6-0.1-27.9,0c-4.9,0-3.2-3.6-3.4-6c-0.2-2.5-0.4-5.1,3.6-4.9C194.3,692,199,691.8,203.6,691.8z"/>
</g>
<g id="Layer_5">
	<path fill="#F8E62D" d="M1557,160.9c0-7,0-14,0-21c2.1-4.1,1.5-8.6,2.2-12.9c11.6-69.9,68-121.4,138.6-126.3
		c72.2-5,137.7,42.7,155.4,113c1.3,5.1,1.4,10.4,3.7,15.2c0,14.7,0,29.3,0,44c-1.8,1.2-1.4,3.3-1.7,4.9
		c-12.7,58.6-47.5,97.3-104.4,116.4c-7.5,2.5-15.5,2.9-22.9,5.7c-14,0-28,0-42,0c-1.4-1.7-3.6-1.5-5.4-1.8
		c-58.9-10.3-107.6-57.5-119.7-115.9C1559.4,175.1,1559.3,167.8,1557,160.9z M1672,59.2c0-3,0-6,0-9c0-1.7-0.6-3-2.3-3.3
		c-1.9-0.3-2.7,1.1-3.2,2.5c-0.6,1.5-1.1,3.1-1.4,4.8c-0.6,3.5-1.8,5.3-6.1,5c-6.2-0.4-10,3.7-9.9,9.9c0,4.1-0.8,7.9-2.2,11.7
		c-1.9,5.2-3.1,10.5-3.6,16c-1,12.2,2.5,20.7,12.9,25.5c6.6,3,12.5,7.5,18.8,11.2c6.5,3.8,9.5,9.4,10,16.7c1.5,20,1.5,39.9-1.6,59.7
		c-2.5,15.9,3.6,29,22,29.3c6.2,0.1,12.3,0.4,18.4,0.7c8.4,0.4,11.1,2.5,13.7,10.3c0.5,1.5,1.2,3.1,2.2,4.4c3.4,4.3,7.5,3.9,9.3-1.2
		c4-11.1,2.1-26.7-16.1-27.6c-3.7-0.2-7.3-0.5-10.9-0.9c-2-0.2-4-0.6-5.8-1.2c-4.3-1.5-6.7-3.8-6.6-9.1c0.2-7.3,2-14.1,4-21
		c0.5-1.6,1.1-2.6,2.9-2.8c9.1-0.8,18.2-1.9,27.3-0.1c6.7,1.3,8.4,3.3,9,9.9c0.6,7,1.1,13.9,0.4,20.9c-0.3,2.7,0.3,5.4,3.2,6
		c7.9,1.6,15.9,2.1,23.6-0.7c3.8-1.4,4-4.6,1.1-7.5c-2.2-2.2-5.1-3.2-8-3.8c-4.1-0.8-5.4-3.2-5.1-7.1c0.4-4.3,0.9-8.6,0.7-12.9
		c-0.6-16.1-6.9-24.9-21.6-25.9c-4.1-0.3-8.1-1.9-12.1-2.8c-2.6-0.6-4-1.9-4.1-4.8c-0.2-5.1-0.9-10.3-0.8-15.4
		c0.3-17.1,3.4-19.1,20.5-18.6c0.5,0,1,0.1,1.5,0.2c10,1.7,14.5,6.7,15.8,17c0.4,3.6,1.1,7.2,1.7,10.8c0.4,2.5,0.9,5.2,4.2,5.3
		c3.4,0.2,6.3-1.1,7.7-4.4c1-2.3,1.5-4.7,1.4-7.3c-0.1-6.2-1.5-12.2-2.8-18.2c-1.3-6.3-4.8-10.9-10-14.3c-7.1-4.7-15.2-6.6-23.5-7.2
		c-16.5-1.3-32.5,2.3-48.4,5.7c-12.3,2.6-23,0.5-32.6-7.7c-3.3-2.8-5-6-4.1-10.5c0.7-3.4,0.8-7,1.6-10.3c0.6-2.5-0.1-5.7,2.1-7.5
		C1672.1,74.1,1672.8,66.9,1672,59.2z M1702.5,70.9c-11.4,0-19.4,8-19.5,19.4c0,10.6,9.6,20.1,20.6,20.2
		c10.2,0.1,19.4-9.3,19.3-19.6C1722.8,79.4,1714,70.8,1702.5,70.9z M1766.7,253.6c1.6-2,2.7-3.5,3.8-4.8c1.1-1.3,1-2.3-0.4-3.3
		c-3.5-2.5-7-5.1-10.4-7.6c-0.2,0.2-0.4,0.4-0.6,0.6C1761.5,243.3,1764,248.1,1766.7,253.6z M1732.7,200.5c-6.5,4.8-6.5,4.9-1.5,9.8
		c1.8,1.8,3.7,3.6,6.1,6.1C1736.5,210.3,1734.1,205.7,1732.7,200.5z M1754,241.9c-0.3,0.1-0.5,0.1-0.8,0.2c-0.3,2.3-0.6,4.6-0.7,6.9
		c-0.1,1.2-1.3,2.9,0.6,3.4c1.3,0.3,3.1,0,4.3-0.7c1.4-0.8-0.2-2.1-0.5-3C1756.1,246.3,1755,244.1,1754,241.9z M1761.8,234.5
		c3.7,1.2,7.2,2.4,10.9,3.5C1773,231.6,1770.9,231,1761.8,234.5z M1743.6,214.3c0.9-3.2,1.8-5.5,2.2-7.9c0.2-1.1,1.4-2.7-0.3-3.4
		c-1.1-0.5-2.8-0.5-3.8,0c-1.7,0.7-0.5,2.3-0.2,3.4C1742,208.8,1742.7,211.1,1743.6,214.3z M1724.4,214.2c-1,6.4-0.5,6.6,9.9,5.1
		C1730.9,217.5,1727.8,216,1724.4,214.2z"/>
	<path fill="#0A0A01" d="M1672,59.2c0.8,7.8,0.1,14.9-6.6,20.3c-2.3,1.8-1.5,5-2.1,7.5c-0.8,3.4-0.9,6.9-1.6,10.3
		c-1,4.5,0.8,7.7,4.1,10.5c9.6,8.1,20.2,10.3,32.6,7.7c15.9-3.4,31.9-7,48.4-5.7c8.4,0.7,16.4,2.6,23.5,7.2c5.2,3.4,8.7,8,10,14.3
		c1.2,6,2.7,12,2.8,18.2c0,2.6-0.4,5-1.4,7.3c-1.4,3.3-4.3,4.6-7.7,4.4c-3.2-0.2-3.8-2.8-4.2-5.3c-0.6-3.6-1.2-7.2-1.7-10.8
		c-1.2-10.3-5.8-15.3-15.8-17c-0.5-0.1-1-0.2-1.5-0.2c-17.1-0.5-20.2,1.5-20.5,18.6c-0.1,5.1,0.6,10.3,0.8,15.4
		c0.1,2.8,1.6,4.2,4.1,4.8c4,1,8,2.6,12.1,2.8c14.7,1,21,9.8,21.6,25.9c0.2,4.3-0.3,8.6-0.7,12.9c-0.3,3.9,1,6.3,5.1,7.1
		c2.9,0.6,5.8,1.6,8,3.8c2.9,2.9,2.7,6.1-1.1,7.5c-7.7,2.8-15.7,2.3-23.6,0.7c-2.9-0.6-3.5-3.3-3.2-6c0.7-7,0.2-13.9-0.4-20.9
		c-0.6-6.7-2.3-8.6-9-9.9c-9.1-1.8-18.2-0.7-27.3,0.1c-1.9,0.2-2.5,1.2-2.9,2.8c-2,6.9-3.8,13.7-4,21c-0.2,5.3,2.3,7.7,6.6,9.1
		c1.9,0.6,3.9,1,5.8,1.2c3.6,0.4,7.3,0.7,10.9,0.9c18.2,0.9,20.1,16.5,16.1,27.6c-1.8,5.1-5.9,5.5-9.3,1.2c-1-1.3-1.7-2.8-2.2-4.4
		c-2.6-7.7-5.3-9.8-13.7-10.3c-6.1-0.3-12.3-0.6-18.4-0.7c-18.4-0.3-24.5-13.4-22-29.3c3.1-19.8,3.1-39.8,1.6-59.7
		c-0.5-7.3-3.5-13-10-16.7c-6.3-3.7-12.2-8.2-18.8-11.2c-10.4-4.8-14-13.3-12.9-25.5c0.5-5.5,1.6-10.8,3.6-16
		c1.4-3.8,2.2-7.6,2.2-11.7c0-6.3,3.8-10.3,9.9-9.9c4.2,0.3,5.5-1.5,6.1-5c0.3-1.6,0.8-3.2,1.4-4.8c0.5-1.4,1.4-2.8,3.2-2.5
		c1.8,0.3,2.3,1.7,2.3,3.3C1672,53.2,1672,56.2,1672,59.2z"/>
	<path fill="#0A0A01" d="M1702.5,70.9c11.5,0,20.3,8.6,20.4,20c0.1,10.3-9.1,19.7-19.3,19.6c-11-0.1-20.7-9.6-20.6-20.2
		C1683,78.8,1691,70.9,1702.5,70.9z M1691.7,98.6c8.4,9.6,19.1,9.3,23.1-0.1C1707.3,101,1699.9,99.5,1691.7,98.6z"/>
	<path fill="#0A0A01" d="M1766.7,253.6c-2.7-5.5-5.1-10.3-7.5-15.1c0.2-0.2,0.4-0.4,0.6-0.6c3.5,2.5,6.9,5.1,10.4,7.6
		c1.4,1,1.5,2,0.4,3.3C1769.4,250.1,1768.3,251.5,1766.7,253.6z"/>
	<path fill="#0A0A01" d="M1732.7,200.5c1.4,5.3,3.8,9.8,4.6,15.8c-2.5-2.4-4.3-4.2-6.1-6.1C1726.2,205.3,1726.2,205.3,1732.7,200.5z
		"/>
	<path fill="#0A0A01" d="M1754,241.9c1,2.2,2.1,4.4,2.8,6.7c0.3,0.9,1.9,2.2,0.5,3c-1.2,0.7-3,1.1-4.3,0.7c-1.8-0.5-0.6-2.2-0.6-3.4
		c0.1-2.3,0.5-4.6,0.7-6.9C1753.5,242,1753.8,242,1754,241.9z"/>
	<path fill="#0A0A01" d="M1761.8,234.5c9.1-3.5,11.2-2.9,10.9,3.5C1769.1,236.8,1765.6,235.7,1761.8,234.5z"/>
	<path fill="#0A0A01" d="M1743.6,214.3c-0.9-3.2-1.6-5.5-2.1-7.9c-0.3-1.1-1.4-2.7,0.2-3.4c1.1-0.5,2.7-0.4,3.8,0
		c1.7,0.7,0.5,2.3,0.3,3.4C1745.4,208.8,1744.5,211.1,1743.6,214.3z"/>
	<path fill="#0A0A01" d="M1724.4,214.2c3.4,1.8,6.5,3.3,9.9,5.1C1723.9,220.8,1723.4,220.6,1724.4,214.2z"/>
	<path fill="#F8E62D" d="M1691.7,98.6c8.2,0.9,15.6,2.4,23.1-0.1C1710.8,107.9,1700.1,108.2,1691.7,98.6z"/>
</g>
<g id="Layer_2">
	<path fill="#F6F4F5" d="M113.3,86.2c17.9,5.7,34.4,10.8,50.8,16.1c21.2,6.8,42.4,13.7,63.6,20.6c2.2,0.7,4.2,1.4,6.7,0.5
		c3.2-1.1,5.3,1.3,6.9,3.7c6.3,9,6.2,30.1,0,39.3c-1.8,2.7-4,4.5-7.5,3.6c-3.5-0.9-6.5,1-9.6,1.9c-5.7,1.7-11.4,3.6-17.2,5.3
		c-2.1,0.6-3.2,1.3-2.9,4.1c2.1,16.9-6.9,31.3-22.4,36.2c-15.2,4.8-30.9-1.7-38.8-16.5c-1.6-3-3.1-2.6-5.4-1.9
		c-14,4.4-28,8.5-41.8,13.2c-5.9,2-10.4,0.5-14.5-3.5c-6.8-6.8-10.2-15.5-12.6-24.6c-7.3-28.6-6.8-57,3.2-85
		c1.9-5.4,4.6-10.4,8.6-14.5c6.5-6.7,14.6-6.6,20.9,0.6c7.3,8.5,10.3,18.9,12.5,29.5c2,9.3,3,18.7,3,28.3c0,3.1-0.1,6.7,4.1,6.5
		c4.1-0.2,3.9-3.8,3.8-6.9C124.3,123.6,122.7,104.8,113.3,86.2z M96,91.9c-5.1-4.9-8.5-4.9-12.6-0.3c-3.9,4.3-5.9,9.7-7.4,15.1
		c-6.7,24.9-6.8,50-1.4,75.1c1.4,6.5,3.4,12.9,7.3,18.5c4.9,7.1,10.6,7,15.5,0c2.1-3,3.6-6.4,4.8-9.8c4.3-12.4,5.8-25.3,6.1-38.3
		c0.4-12.9-13.4-21.9-25.3-16.4c-1.5,0.7-2.6,2.1-4.7,2c1-12.3,2.7-24.5,8-35.8C88.3,97.8,90.8,93.9,96,91.9z M170.3,207.9
		c14-0.1,24.2-10.7,23.5-22.3c-0.1-2.3-0.1-4.3-3.7-3.1c-11.7,3.9-23.4,7.5-35.1,11.1c-2.6,0.8-2.7,1.9-1.4,3.9
		C158,204.3,164.3,207.7,170.3,207.9z"/>
</g>
<g id="Layer_3">
	<path fill="#33B1D2" d="M681,299.9c-10.3,0-20.7,0-31,0c-2-1.9-4.7-1.4-7.1-1.8c-62.5-9.7-112.2-57.6-124.2-119.8
		c-0.8-4.2-0.6-8.6-2.7-12.5c0-10.7,0-21.3,0-32c1.8-1.7,1.3-4,1.6-6.1c13.8-84,88.6-138.6,172.6-125.9
		c76.8,11.6,133.1,84.5,125,162c-7.3,69.8-57.6,123-127.2,134.3C685.7,298.6,683.1,298,681,299.9z M669,82.9
		c-19.8,0-39.6-0.1-59.5,0c-11.2,0-19.5,8-19.5,19c-0.1,24.3-0.1,48.6,0,73c0.1,10.6,8,18.6,18.6,18.9c4,0.1,8,0.2,12,0
		c3.2-0.2,4.4,0.9,4.3,4.2c-0.2,8.3,0,16.7-0.1,25c-0.1,3.9,0.3,7.4,4.3,9.2c4.2,1.9,6.9-0.6,9.6-3.3c10.5-10.7,21.2-21.2,31.6-32
		c2.1-2.2,4.3-3.2,7.4-3.1c16,0.1,32,0.1,48,0.1c13.5,0,21.2-7.6,21.2-20.9c0-23.2,0-46.3,0-69.5c0-12.8-7.7-20.5-20.5-20.6
		C707.3,82.8,688.2,82.9,669,82.9z"/>
	<path fill="#F6F6F7" d="M669,82.9c19.2,0,38.3,0,57.5,0c12.8,0,20.5,7.7,20.5,20.6c0,23.2,0,46.3,0,69.5c0,13.4-7.7,20.9-21.2,20.9
		c-16,0-32,0.1-48-0.1c-3.1,0-5.3,0.9-7.4,3.1c-10.5,10.7-21.1,21.3-31.6,32c-2.7,2.7-5.4,5.2-9.6,3.3c-4-1.8-4.4-5.4-4.3-9.2
		c0.1-8.3-0.1-16.7,0.1-25c0.1-3.3-1.1-4.4-4.3-4.2c-4,0.2-8,0.2-12,0c-10.6-0.3-18.6-8.3-18.6-18.9c-0.1-24.3-0.1-48.6,0-73
		c0.1-11.1,8.3-19,19.5-19C629.4,82.8,649.2,82.9,669,82.9z M707,128.8c-5.3-0.1-9.6,4-9.6,9.2c0,5,4.5,9.6,9.5,9.6
		c5,0,9.1-4.1,9.2-9.2C716.2,133,712.3,128.9,707,128.8z M642.3,137.9c-0.1-5.2-4-9.1-9.3-9.1c-5.4,0-9.5,4.1-9.4,9.5
		c0.1,5.1,4.3,9.3,9.3,9.3C638,147.6,642.4,143.1,642.3,137.9z M679,138.2c0.1-5.3-4-9.5-9.3-9.5c-5,0-9.3,4-9.5,8.9
		c-0.2,5,4.2,9.7,9.2,9.9C674.4,147.8,678.9,143.4,679,138.2z"/>
	<path fill="#33B1D2" d="M707,128.8c5.3,0.1,9.3,4.3,9.1,9.7c-0.2,5.1-4.3,9.1-9.2,9.2c-4.9,0-9.5-4.6-9.5-9.6
		C697.4,132.8,701.7,128.7,707,128.8z"/>
	<path fill="#33B1D2" d="M642.3,137.9c0.1,5.3-4.3,9.8-9.4,9.7c-4.9,0-9.1-4.3-9.3-9.3c-0.1-5.4,4-9.5,9.4-9.5
		C638.3,128.8,642.3,132.7,642.3,137.9z"/>
	<path fill="#33B1D2" d="M679,138.2c-0.1,5.2-4.6,9.5-9.6,9.3c-5-0.2-9.4-5-9.2-9.9c0.2-5,4.4-8.9,9.5-8.9
		C674.9,128.8,679.1,133,679,138.2z"/>
</g>
<g id="Layer_4">
	<path fill="#34B2D2" d="M1195,299.9c-10.3,0-20.7,0-31,0c-2.4-1.9-5.3-1.5-8-1.9c-79.1-12-136.1-88.6-124.7-167.9
		C1042.9,49,1113.5-6.8,1195,0.7c67,6.1,123,59,133.1,125.6c0.4,2.9,0,6,1.8,8.6c0,10.3,0,20.7,0,31c-1.8,2.2-1.5,5-1.9,7.5
		c-9.7,63.5-61.1,114.9-124.6,124.6C1200.7,298.5,1197.6,298,1195,299.9z M1168,140.8c-1.7,9.3-3.5,18.6-5.2,27.9
		c-1.8,9.7-1.9,9.9,8.2,10c3.1,0.1,4.1,1,4,4c-0.2,6.7-0.1,13.3,0,20c0,1.9-0.5,4.1,2.8,4.1c3.2,0,2.9-2.1,2.9-4c0-6.7,0-13.3,0-20
		c0-2-0.2-4.1,2.9-4c3,0.1,2.4,2.2,2.4,3.9c0,6.7,0,13.3,0,20c0,1.9-0.6,4.1,2.7,4.2c3.1,0,3-1.9,3-4c0-4.5,0-9,0-13.5
		c0-10.1,0-10.2,9.9-10.5c2.9-0.1,3.8-1,3.2-3.9c-2.3-11.4-4.5-22.8-6.7-34.2c4,0.4,5.8-1.1,5.3-5.4c-0.3-3.3-0.1-6.7-0.1-10
		c0-14.2-4.1-19.9-17.8-24.3c3.6-1.3,7.2-2.3,9.4-5.1c2-2.6,4-3.1,7.2-2.4c3.1,0.7,6.3-0.5,8.9-2.5c0.8-0.6,2.5-1.3,1.4-2.7
		c-2.5-3.3-4.4-7.5-8.8-8.5c-3.1-0.7-4.7-2.2-6.2-4.9c-3.6-6.3-11.1-9.5-18-8c-7.1,1.6-12.7,7.5-13.4,14.4
		c-0.9,7.7,2.7,14.3,9.4,17.7c1.3,0.7,3,0.6,3.9,2c-13.4,5.9-16.4,10.4-16.4,24.6c0,3.2,0.3,6.4-0.1,9.5
		C1162.4,139.5,1163.9,141.3,1168,140.8z M1140.2,157.6c0.9-0.7,1.3-1,1.7-1.3c4.8-3.9,6.1-8.4,3.8-13.1c-2.1-4.3-6.8-6.4-11.8-5.3
		c-4.8,1.1-7.8,5.3-7.4,11.4c0.2,2.1-0.9,2.4-2.1,3.3c-1.2,0.9-2.7,2.4-1.9,3.7c0.9,1.6,3.3,1.3,4.4,0.2c2.7-2.4,3.8-0.1,6.1,1.1
		c-3.9,2.1-6.3,4.6-6.3,8.2c-0.1,8.2-1.6,16.2-3.9,24c-0.4,1.3-0.7,3.1,1.4,2.8c5.4-0.6,4.8,2.9,4.7,6.3c-0.1,1.7,0.1,3.3,0,5
		c-0.1,2,0.6,3,2.8,3c2.2,0,2.9-1,2.9-3c0-2.3-0.1-4.7,0-7c0.1-1.5-0.8-3.9,1.8-3.8c2.4,0.1,1.5,2.5,1.6,4c0.2,2.3,0.1,4.7,0.1,7
		c0,2.2,1.1,2.8,3.1,2.8c1.9,0,2.7-0.8,2.6-2.7c-0.1-2.7,0.1-5.3,0-8c-0.1-2.1,0.3-3.8,2.9-3.4c4.3,0.5,3.5-2.1,2.9-4.6
		c-1.5-5.9-3.6-11.8-3.2-18.1C1146.9,164.9,1145.5,160.5,1140.2,157.6z M1224.7,157.5c-5.4,2.9-8.4,7.6-7.4,13.5
		c0.8,4.9-4.1,11.5,3.9,14.6c0.5,0.2,0.5,2.1,0.5,3.3c0.1,4.8,0,9.6,0,14.5c0,2,0.1,3.6,2.9,3.5c2.5-0.1,2.4-1.7,2.5-3.4
		c0-5,0-10,0-15c0-1.5-0.5-3.7,2.1-3.6c2.3,0.1,1.7,2.1,1.7,3.5c0.1,5.2,0.1,10.3,0,15.5c0,2,0.5,3.1,2.8,3.1c2.2,0,3-0.9,3-3
		c0-2.8-0.4-5.7,0.1-8.5c0.7-4-2.9-9.5,3.7-11.8c0.4-0.1,0.4-1.8,0.4-2.8c0-2.8-0.1-5.7,0.1-8.5c0.4-6.5-1.5-11.8-7.7-14.9
		c6.5-5.9,7.7-12.1,3.4-16.9c-4-4.3-10.6-4.5-14.7-0.3C1217.2,145,1218.1,150.8,1224.7,157.5z M1258.7,157.6
		c-2.8,2.1-5.7,4.1-5.6,7.6c0.3,8.5-1.7,16.5-4,24.5c-0.4,1.5-0.7,3.3,1.8,3c4.4-0.5,4.4,2.1,4.3,5.2c-0.1,2,0,4,0,6
		c-0.1,2,0.6,3.1,2.9,3.1c2.1,0,3-0.8,3-2.9c-0.1-2.8,0-5.7,0-8.5c0-1.1,0-2.5,1.7-2.5c1.6,0,1.7,1.3,1.7,2.5c0.1,2.5,0,5,0.1,7.5
		c0,2.1-0.1,4,3,3.9c2.9-0.1,2.6-1.9,2.6-3.7c0-2.2,0.1-4.3,0-6.5c-0.1-2.5,0.3-4.3,3.4-4c3.4,0.4,3.2-1.4,2.6-3.9
		c-1.4-5.8-3.8-11.4-3.3-17.5c0.4-5.7-0.8-10.6-6.3-13.7c0.6-0.5,1-0.8,1.4-1.1c4.9-3.8,6.2-8.2,4.1-13c-2.1-4.5-7.1-6.8-12.1-5.5
		c-4.6,1.2-7.5,5.4-7.1,11.1c0.1,1.9-0.5,2.6-1.8,3.5c-1.3,0.9-3,2.3-2.1,4c0.7,1.2,3.1,1,4.2,0.1
		C1255.2,154.7,1256.7,155.6,1258.7,157.6z M1106.3,157.3c6.6-6.7,7.4-12.4,2.5-17.1c-4-3.9-10.5-3.8-14.4,0.1
		c-4.7,4.8-3.7,10.8,3,17.2c-3.5,1.9-6.7,4.5-7.1,8.5c-0.6,5.4-0.3,11-0.4,16.4c0,1.1,0.4,2,1.6,2.1c2.7,0.2,2.5,2.2,2.5,4
		c0,5,0.1,10,0,15c0,2.2,0.5,3.4,3.1,3.4c2.4,0,2.7-1.4,2.7-3.2c0-3,0.3-6-0.1-9c-0.5-4,2.4-9.1-3.7-11.3c-0.3-0.1-0.5-1.2-0.5-1.8
		c0-4.5-0.1-9,0.1-13.5c0.2-3.2,2.3-5.1,5.6-5.3c3.6-0.2,6.6,1.9,6.2,5c-0.8,5.9,4.3,13.2-3.4,17.8c-0.2,0.1-0.3,0.6-0.3,0.9
		c0,6.2-0.1,12.3,0,18.5c0,1.9,1.5,1.9,2.9,1.9c1.3,0,2.3-0.4,2.3-1.9c0-2.2-0.3-4.4,0.1-6.5c1.1-5-3.6-11.8,4.1-15
		c0.1,0,0.1-0.3,0.1-0.5C1116.4,175.9,1112.6,162.4,1106.3,157.3z"/>
	<path fill="#F1F4F6" d="M1198,140.8c2.2,11.4,4.4,22.8,6.7,34.2c0.6,2.9-0.2,3.8-3.2,3.9c-9.9,0.3-9.9,0.4-9.9,10.5
		c0,4.5,0,9,0,13.5c0,2.1,0.1,4-3,4c-3.3,0-2.7-2.3-2.7-4.2c0-6.7,0-13.3,0-20c0-1.7,0.6-3.8-2.4-3.9c-3.1-0.1-2.9,2-2.9,4
		c0,6.7,0,13.3,0,20c0,2,0.3,4.1-2.9,4c-3.3,0-2.7-2.2-2.8-4.1c0-6.7-0.1-13.3,0-20c0.1-3-0.9-4-4-4c-10.1-0.2-10.1-0.3-8.2-10
		c1.8-9.3,3.5-18.6,5.2-27.9l-0.1,0.1C1178,140.4,1188,140.4,1198,140.8L1198,140.8z"/>
	<path fill="#F1F4F6" d="M1168,140.8c-4.1,0.5-5.6-1.3-5.2-5.4c0.3-3.1,0.1-6.3,0.1-9.5c0-14.2,3.1-18.7,16.4-24.6
		c-0.9-1.4-2.6-1.4-3.9-2c-6.8-3.4-10.3-10-9.4-17.7c0.8-6.9,6.3-12.8,13.4-14.4c6.8-1.5,14.4,1.6,18,8c1.5,2.6,3,4.2,6.2,4.9
		c4.4,1,6.3,5.2,8.8,8.5c1.1,1.4-0.6,2.1-1.4,2.7c-2.7,1.9-5.8,3.2-8.9,2.5c-3.2-0.7-5.2-0.2-7.2,2.4c-2.2,2.8-5.7,3.8-9.4,5.1
		c13.7,4.5,17.7,10.2,17.8,24.3c0,3.3-0.3,6.7,0.1,10c0.4,4.2-1.3,5.8-5.3,5.4c0,0,0.1,0.1,0.1,0.1c-0.1-6.1-0.1-12.3-0.2-18.4
		c0-4.1-1.3-7.8-4.2-10.9c-1.3-1.4-2.2-1.9-3.9-0.1c-4.8,5-8.8,5-13.4,0c-1.8-1.9-2.6-1.2-3.9,0.1c-3.2,3.3-4.2,7.4-4.2,11.9
		C1168.2,129.3,1168.1,135.1,1168,140.8L1168,140.8z M1182.7,95.4c5.9-0.1,11-4.5,11.4-9.6c0.2-1.8,0.2-3.4-2.2-3.7
		c-5.1-0.6-10.8-3.7-13.9,3.5c-0.3,0.7-1.1,1.3-1.8,1.7c-4,2.2-2.6,4.1,0.2,6C1178.4,94.7,1180.6,95.3,1182.7,95.4z M1180.3,72.8
		c-5.8,2-8.1,5.3-9.1,11.2C1175.7,80.7,1177.9,77.5,1180.3,72.8z"/>
	<path fill="#F1F4F6" d="M1140.2,157.6c5.3,2.9,6.7,7.3,6.4,12.4c-0.4,6.3,1.7,12.1,3.2,18.1c0.6,2.5,1.5,5.1-2.9,4.6
		c-2.6-0.3-2.9,1.4-2.9,3.4c0.1,2.7,0,5.3,0,8c0,1.9-0.7,2.7-2.6,2.7c-2,0-3.2-0.6-3.1-2.8c0.1-2.3,0.1-4.7-0.1-7
		c-0.1-1.5,0.8-3.9-1.6-4c-2.6-0.1-1.7,2.3-1.8,3.8c-0.2,2.3-0.1,4.7,0,7c0,2-0.7,3-2.9,3c-2.2,0-2.9-1-2.8-3c0.1-1.7,0-3.3,0-5
		c0.1-3.4,0.7-6.9-4.7-6.3c-2.1,0.2-1.8-1.5-1.4-2.8c2.3-7.9,3.8-15.8,3.9-24c0-3.6,2.4-6.1,6.3-8.2c-2.4-1.2-3.4-3.5-6.1-1.1
		c-1.1,1-3.5,1.3-4.4-0.2c-0.8-1.3,0.7-2.8,1.9-3.7c1.1-0.9,2.2-1.2,2.1-3.3c-0.5-6.1,2.5-10.3,7.4-11.4c5-1.1,9.6,1,11.8,5.3
		c2.3,4.7,1,9.2-3.8,13.1C1141.5,156.6,1141.1,156.9,1140.2,157.6z M1136.5,145.4c-1.5,1.3-4.3,1.3-4.1,3.8c0.2,1.9,2,2.9,4.1,2.9
		c2.2,0,4.1-1,4.3-3.3C1140.9,146,1137.8,146.9,1136.5,145.4z"/>
	<path fill="#F1F4F6" d="M1224.7,157.5c-6.6-6.7-7.5-12.5-2.8-17.2c4.1-4.1,10.7-4,14.7,0.3c4.4,4.7,3.2,10.9-3.4,16.9
		c6.2,3.1,8.2,8.3,7.7,14.9c-0.2,2.8,0,5.7-0.1,8.5c0,1,0,2.7-0.4,2.8c-6.6,2.3-3.1,7.7-3.7,11.8c-0.5,2.8-0.1,5.6-0.1,8.5
		c0,2.1-0.8,2.9-3,3c-2.3,0-2.8-1.1-2.8-3.1c0.1-5.2,0.1-10.3,0-15.5c0-1.3,0.6-3.4-1.7-3.5c-2.7-0.1-2.1,2.1-2.1,3.6
		c-0.1,5,0,10,0,15c0,1.7,0.1,3.3-2.5,3.4c-2.7,0.1-2.9-1.5-2.9-3.5c0-4.8,0-9.6,0-14.5c0-1.1,0-3.1-0.5-3.3
		c-7.9-3.1-3.1-9.7-3.9-14.6C1216.4,165.1,1219.3,160.4,1224.7,157.5z M1229,152c3-0.1,4.8-1.7,4.7-4.6c0-2.6-1.7-4.3-4.4-4.4
		c-3-0.1-4.6,1.8-4.7,4.6C1224.6,150.2,1226.2,151.8,1229,152z"/>
	<path fill="#F1F4F6" d="M1258.7,157.6c-2-2-3.5-2.9-5.8-1c-1.1,0.9-3.5,1-4.2-0.1c-1-1.6,0.7-3.1,2.1-4c1.4-0.9,2-1.6,1.8-3.5
		c-0.4-5.7,2.5-9.9,7.1-11.1c5-1.3,10.1,0.9,12.1,5.5c2.2,4.8,0.8,9.2-4.1,13c-0.4,0.3-0.8,0.6-1.4,1.1c5.5,3.1,6.8,8,6.3,13.7
		c-0.5,6.2,1.9,11.8,3.3,17.5c0.6,2.5,0.8,4.3-2.6,3.9c-3.1-0.4-3.6,1.5-3.4,4c0.1,2.2,0,4.3,0,6.5c0,1.8,0.2,3.7-2.6,3.7
		c-3.1,0.1-3-1.9-3-3.9c0-2.5,0-5-0.1-7.5c0-1.2-0.1-2.5-1.7-2.5c-1.7,0-1.7,1.3-1.7,2.5c-0.1,2.8-0.1,5.7,0,8.5
		c0,2.1-0.8,2.9-3,2.9c-2.2,0-2.9-1-2.9-3.1c0.1-2-0.1-4,0-6c0.2-3.1,0.1-5.7-4.3-5.2c-2.4,0.3-2.2-1.5-1.8-3c2.3-8,4.3-16,4-24.5
		C1253,161.7,1255.9,159.7,1258.7,157.6z M1262.6,186.9C1262.6,186.9,1262.6,186.9,1262.6,186.9c0.7,0,1.3-0.1,2,0
		c4.6,0.7,5.5-1.2,4-5.2c-1.5-4.1-1.7-8.4-1.5-12.7c0.1-3-0.4-5.9-4.2-6.1c-3.8-0.1-4.7,2.6-4.7,5.7c0,5.1,0,10.3-1.8,15.2
		c-0.7,2-0.1,3.2,2.2,3.1C1259.9,186.8,1261.3,186.9,1262.6,186.9z M1262.9,152.1c1.9-0.2,3.9-1,4-3.3c0.1-2.7-2.8-2.8-4.3-3
		c-1.5-0.1-3.9,1-4,2.9C1258.4,151,1260.4,152,1262.9,152.1z"/>
	<path fill="#F1F4F6" d="M1106.3,157.3c6.3,5.1,10.1,18.6,7.1,25.7c-0.1,0.2-0.1,0.4-0.1,0.5c-7.7,3.2-3,9.9-4.1,15
		c-0.5,2.1-0.1,4.3-0.1,6.5c0,1.5-1,1.9-2.3,1.9c-1.4,0-2.8,0-2.9-1.9c0-6.2,0-12.3,0-18.5c0-0.3,0.1-0.8,0.3-0.9
		c7.7-4.6,2.6-11.8,3.4-17.8c0.4-3.1-2.6-5.2-6.2-5c-3.3,0.2-5.4,2.1-5.6,5.3c-0.3,4.5-0.1,9-0.1,13.5c0,0.6,0.1,1.7,0.5,1.8
		c6.1,2.2,3.2,7.4,3.7,11.3c0.3,3,0,6,0.1,9c0,1.9-0.3,3.2-2.7,3.2c-2.5,0.1-3.1-1.2-3.1-3.4c0.1-5,0-10,0-15c0-1.8,0.2-3.8-2.5-4
		c-1.2-0.1-1.6-1-1.6-2.1c0.1-5.5-0.2-11,0.4-16.4c0.4-4.1,3.6-6.6,7.1-8.5c-6.7-6.4-7.8-12.4-3-17.2c3.9-3.9,10.4-4,14.4-0.1
		C1113.8,144.9,1112.9,150.6,1106.3,157.3z M1106.2,147.3c-0.3-2.7-1.7-4.4-4.5-4.3c-2.7,0.1-4.5,1.7-4.5,4.4c0,2.9,1.7,4.7,4.8,4.5
		C1104.8,151.8,1106.1,150,1106.2,147.3z"/>
	<path fill="#34B2D2" d="M1168,140.9c0.1-5.8,0.2-11.6,0.3-17.4c0.1-4.4,1-8.5,4.2-11.9c1.3-1.3,2.1-2.1,3.9-0.1c4.7,5,8.7,5,13.4,0
		c1.7-1.8,2.6-1.3,3.9,0.1c2.8,3.1,4.1,6.7,4.2,10.9c0.1,6.1,0.1,12.3,0.2,18.4C1188,140.4,1178,140.4,1168,140.9z"/>
	<path fill="#34B2D2" d="M1182.7,95.4c-2.1-0.2-4.3-0.7-6.3-2.1c-2.9-1.9-4.2-3.8-0.2-6c0.7-0.4,1.5-1,1.8-1.7
		c3.2-7.2,8.9-4.1,13.9-3.5c2.4,0.3,2.3,1.9,2.2,3.7C1193.7,91,1188.6,95.3,1182.7,95.4z"/>
	<path fill="#34B2D2" d="M1180.3,72.8c-2.4,4.7-4.6,7.9-9.1,11.2C1172.2,78.1,1174.4,74.8,1180.3,72.8z"/>
	<path fill="#34B2D2" d="M1136.5,145.4c1.3,1.5,4.4,0.6,4.3,3.4c-0.1,2.2-2.1,3.3-4.3,3.3c-2,0-3.9-0.9-4.1-2.9
		C1132.2,146.7,1134.9,146.7,1136.5,145.4z"/>
	<path fill="#34B2D2" d="M1229,152c-2.7-0.2-4.4-1.7-4.4-4.4c0-2.8,1.7-4.7,4.7-4.6c2.7,0.1,4.4,1.8,4.4,4.4
		C1233.7,150.2,1232,151.9,1229,152z"/>
	<path fill="#34B2D2" d="M1262.6,186.9c-1.3,0-2.7,0-4,0c-2.4,0.1-3-1.2-2.2-3.1c1.8-4.9,1.8-10,1.8-15.2c0-3.1,0.9-5.8,4.7-5.7
		c3.8,0.1,4.3,3,4.2,6.1c-0.2,4.3,0,8.6,1.5,12.7c1.5,4,0.6,5.9-4,5.2C1263.9,186.8,1263.2,186.9,1262.6,186.9
		C1262.6,186.9,1262.6,186.9,1262.6,186.9z"/>
	<path fill="#34B2D2" d="M1262.9,152.1c-2.4-0.1-4.5-1.1-4.4-3.4c0.1-1.9,2.5-3,4-2.9c1.6,0.1,4.4,0.3,4.3,3
		C1266.8,151.1,1264.7,151.9,1262.9,152.1z"/>
	<path fill="#34B2D2" d="M1106.2,147.3c-0.2,2.7-1.4,4.5-4.2,4.6c-3,0.1-4.8-1.7-4.8-4.5c0-2.6,1.8-4.3,4.5-4.4
		C1104.5,142.9,1105.9,144.6,1106.2,147.3z"/>
	<g>
	</g>
	<g>
	</g>
	<g>
	</g>
	<g>
	</g>
	<g>
	</g>
	<g>
	</g>
</g>
</svg>
