<?xml version="1.0" encoding="UTF-8" standalone="no"?>
<svg width="371px" height="292px" viewBox="0 0 371 292" version="1.1" xmlns="http://www.w3.org/2000/svg" xmlns:xlink="http://www.w3.org/1999/xlink" xmlns:sketch="http://www.bohemiancoding.com/sketch/ns">
    <!-- Generator: Sketch 3.0.4 (8053) - http://www.bohemiancoding.com/sketch -->
    <title>Toggle</title>
    <desc>Created with Sketch.</desc>
    <defs></defs>
    <g id="Components" stroke="none" stroke-width="1" fill="none" fill-rule="evenodd" sketch:type="MSPage">
        <g id="Toggle" sketch:type="MSArtboardGroup">
            <g id="on" sketch:type="MSLayerGroup" transform="translate(165.000000, 200.000000)">
                <path d="M20,3 C25.5228475,3 30,7.4771525 30,13 C30,18.5228475 25.5228475,23 20,23 L0,23 L0,3 L20,3 Z" id="Oval-90" fill="#32B2D2" sketch:type="MSShapeGroup" transform="translate(15.000000, 13.000000) scale(-1, 1) translate(-15.000000, -13.000000) "></path>
                <circle id="Oval-89" stroke="#32B2D2" fill="#FFFFFF" sketch:type="MSShapeGroup" cx="27.5" cy="12.5" r="12.5"></circle>
            </g>
            <g id="off" sketch:type="MSLayerGroup" transform="translate(185.000000, 147.500000) rotate(-180.000000) translate(-185.000000, -147.500000) translate(165.000000, 135.000000)">
                <path d="M20,3 C25.5228475,3 30,7.4771525 30,13 C30,18.5228475 25.5228475,23 20,23 L2.84217094e-14,23 L2.84217094e-14,3 L20,3 Z" id="Oval-90" fill="#A5BECE" sketch:type="MSShapeGroup" transform="translate(15.000000, 13.000000) scale(-1, 1) translate(-15.000000, -13.000000) "></path>
                <circle id="Oval-89" stroke="#A5BECE" fill="#FFFFFF" sketch:type="MSShapeGroup" cx="27.5" cy="12.5" r="12.5"></circle>
            </g>
            <g id="disabled" sketch:type="MSLayerGroup" transform="translate(185.000000, 82.500000) rotate(-180.000000) translate(-185.000000, -82.500000) translate(165.000000, 70.000000)">
                <path d="M20,3 C25.5228475,3 30,7.4771525 30,13 C30,18.5228475 25.5228475,23 20,23 L0,23 L0,3 L20,3 Z" id="Oval-90" fill="#E1EBF1" sketch:type="MSShapeGroup" transform="translate(15.000000, 13.000000) scale(-1, 1) translate(-15.000000, -13.000000) "></path>
                <path d="M27.5,25 C34.4035594,25 40,19.4035594 40,12.5 C40,5.59644063 34.4035594,0 27.5,0 C20.5964406,0 15,5.59644063 15,12.5 C15,19.4035594 20.5964406,25 27.5,25 Z" id="Oval-89" stroke="#E1EBF1" fill="#FFFFFF" sketch:type="MSShapeGroup"></path>
            </g>
        </g>
    </g>
</svg>